<svg id="visual" viewBox="0 0 1024 675" width="1024" height="675" xmlns="http://www.w3.org/2000/svg" xmlns:xlink="http://www.w3.org/1999/xlink" version="1.1"><rect x="0" y="0" width="1024" height="675" fill="#243b67"></rect><path d="M0 448L24.3 439C48.7 430 97.3 412 146.2 412.7C195 413.3 244 432.7 292.8 434.2C341.7 435.7 390.3 419.3 439 413C487.7 406.7 536.3 410.3 585 409.8C633.7 409.3 682.3 404.7 731.2 408.2C780 411.7 829 423.3 877.8 427.8C926.7 432.3 975.3 429.7 999.7 428.3L1024 427L1024 676L999.7 676C975.3 676 926.7 676 877.8 676C829 676 780 676 731.2 676C682.3 676 633.7 676 585 676C536.3 676 487.7 676 439 676C390.3 676 341.7 676 292.8 676C244 676 195 676 146.2 676C97.3 676 48.7 676 24.3 676L0 676Z" fill="#6e5dfc"></path><path d="M0 491L24.3 486.3C48.7 481.7 97.3 472.3 146.2 477.5C195 482.7 244 502.3 292.8 511.3C341.7 520.3 390.3 518.7 439 508.8C487.7 499 536.3 481 585 472.8C633.7 464.7 682.3 466.3 731.2 466.2C780 466 829 464 877.8 465.8C926.7 467.7 975.3 473.3 999.7 476.2L1024 479L1024 676L999.7 676C975.3 676 926.7 676 877.8 676C829 676 780 676 731.2 676C682.3 676 633.7 676 585 676C536.3 676 487.7 676 439 676C390.3 676 341.7 676 292.8 676C244 676 195 676 146.2 676C97.3 676 48.7 676 24.3 676L0 676Z" fill="#8864fc"></path><path d="M0 567L24.3 562C48.7 557 97.3 547 146.2 542.8C195 538.7 244 540.3 292.8 539.3C341.7 538.3 390.3 534.7 439 539.2C487.7 543.7 536.3 556.3 585 555.7C633.7 555 682.3 541 731.2 533.5C780 526 829 525 877.8 519.3C926.7 513.7 975.3 503.3 999.7 498.2L1024 493L1024 676L999.7 676C975.3 676 926.7 676 877.8 676C829 676 780 676 731.2 676C682.3 676 633.7 676 585 676C536.3 676 487.7 676 439 676C390.3 676 341.7 676 292.8 676C244 676 195 676 146.2 676C97.3 676 48.7 676 24.3 676L0 676Z" fill="#9e6cfc"></path><path d="M0 553L24.3 556.5C48.7 560 97.3 567 146.2 571C195 575 244 576 292.8 572.5C341.7 569 390.3 561 439 565.7C487.7 570.3 536.3 587.7 585 593C633.7 598.3 682.3 591.7 731.2 591.3C780 591 829 597 877.8 597.7C926.7 598.3 975.3 593.7 999.7 591.3L1024 589L1024 676L999.7 676C975.3 676 926.7 676 877.8 676C829 676 780 676 731.2 676C682.3 676 633.7 676 585 676C536.3 676 487.7 676 439 676C390.3 676 341.7 676 292.8 676C244 676 195 676 146.2 676C97.3 676 48.7 676 24.3 676L0 676Z" fill="#b174fc"></path><path d="M0 638L24.3 630.3C48.7 622.7 97.3 607.3 146.2 601.3C195 595.3 244 598.7 292.8 599.5C341.7 600.3 390.3 598.7 439 604.7C487.7 610.7 536.3 624.3 585 627.2C633.7 630 682.3 622 731.2 623C780 624 829 634 877.8 638.5C926.7 643 975.3 642 999.7 641.5L1024 641L1024 676L999.7 676C975.3 676 926.7 676 877.8 676C829 676 780 676 731.2 676C682.3 676 633.7 676 585 676C536.3 676 487.7 676 439 676C390.3 676 341.7 676 292.8 676C244 676 195 676 146.2 676C97.3 676 48.7 676 24.3 676L0 676Z" fill="#c27dfc"></path></svg>